<mxfile host="app.diagrams.net" modified="2022-12-23T02:29:29.978Z" agent="5.0 (Windows NT 10.0; Win64; x64) AppleWebKit/537.36 (KHTML, like Gecko) Chrome/108.0.0.0 Safari/537.36 Edg/108.0.1462.54" etag="dT8Uu_K6huJc8aLuHXdo" version="20.7.4" type="github">
  <diagram id="wOYS0_bJYC_mfzVdEalr" name="Page-1">
    <mxGraphModel dx="1002" dy="573" grid="1" gridSize="10" guides="1" tooltips="1" connect="1" arrows="1" fold="1" page="1" pageScale="1" pageWidth="850" pageHeight="1100" math="0" shadow="0">
      <root>
        <mxCell id="0" />
        <mxCell id="1" parent="0" />
        <mxCell id="F1rEGI-G_MPweLG45hTM-47" value="" style="rounded=0;whiteSpace=wrap;html=1;glass=0;fillColor=none;dashed=1;" parent="1" vertex="1">
          <mxGeometry x="317.19" y="770" width="432.81" height="280" as="geometry" />
        </mxCell>
        <mxCell id="F1rEGI-G_MPweLG45hTM-45" value="" style="rounded=0;whiteSpace=wrap;html=1;glass=0;fillColor=none;dashed=1;" parent="1" vertex="1">
          <mxGeometry x="317.19" y="460" width="432.81" height="280" as="geometry" />
        </mxCell>
        <mxCell id="F1rEGI-G_MPweLG45hTM-1" value="" style="edgeStyle=orthogonalEdgeStyle;rounded=0;orthogonalLoop=1;jettySize=auto;html=1;" parent="1" source="F1rEGI-G_MPweLG45hTM-2" target="F1rEGI-G_MPweLG45hTM-3" edge="1">
          <mxGeometry relative="1" as="geometry" />
        </mxCell>
        <mxCell id="F1rEGI-G_MPweLG45hTM-2" value="START&lt;br&gt;disp_bar_plots(dentist_role: str)" style="ellipse;whiteSpace=wrap;html=1;rounded=0;" parent="1" vertex="1">
          <mxGeometry x="139.07" width="178.12" height="80" as="geometry" />
        </mxCell>
        <mxCell id="F1rEGI-G_MPweLG45hTM-3" value="Initialise dentists_by_private_role_yearly, dentists_by_public_role_yearly, x_loc to [], bar_width to 0" style="whiteSpace=wrap;html=1;rounded=0;" parent="1" vertex="1">
          <mxGeometry x="70.63000000000001" y="160" width="315" height="50" as="geometry" />
        </mxCell>
        <mxCell id="F1rEGI-G_MPweLG45hTM-4" value="import data&lt;br&gt;import numpy as np&lt;br&gt;import matplotlib.pyplot as plt" style="rounded=0;whiteSpace=wrap;html=1;glass=0;dashed=1;" parent="1" vertex="1">
          <mxGeometry x="268.12" y="90" width="181.88" height="60" as="geometry" />
        </mxCell>
        <mxCell id="F1rEGI-G_MPweLG45hTM-5" value="" style="endArrow=none;dashed=1;html=1;rounded=0;strokeColor=default;entryX=0;entryY=0.5;entryDx=0;entryDy=0;" parent="1" target="F1rEGI-G_MPweLG45hTM-4" edge="1">
          <mxGeometry width="50" height="50" relative="1" as="geometry">
            <mxPoint x="228" y="120" as="sourcePoint" />
            <mxPoint x="420.12" y="340" as="targetPoint" />
          </mxGeometry>
        </mxCell>
        <mxCell id="F1rEGI-G_MPweLG45hTM-6" value="" style="edgeStyle=orthogonalEdgeStyle;rounded=0;orthogonalLoop=1;jettySize=auto;html=1;" parent="1" target="F1rEGI-G_MPweLG45hTM-8" edge="1">
          <mxGeometry relative="1" as="geometry">
            <mxPoint x="228.375" y="210" as="sourcePoint" />
          </mxGeometry>
        </mxCell>
        <mxCell id="F1rEGI-G_MPweLG45hTM-7" value="" style="edgeStyle=orthogonalEdgeStyle;rounded=0;orthogonalLoop=1;jettySize=auto;html=1;" parent="1" source="F1rEGI-G_MPweLG45hTM-8" target="F1rEGI-G_MPweLG45hTM-10" edge="1">
          <mxGeometry relative="1" as="geometry" />
        </mxCell>
        <mxCell id="F1rEGI-G_MPweLG45hTM-8" value="for each i, h in enumerate(data.row_header)" style="rounded=0;whiteSpace=wrap;html=1;" parent="1" vertex="1">
          <mxGeometry x="145.87" y="250" width="165" height="40" as="geometry" />
        </mxCell>
        <mxCell id="F1rEGI-G_MPweLG45hTM-14" value="" style="edgeStyle=orthogonalEdgeStyle;rounded=0;orthogonalLoop=1;jettySize=auto;html=1;" parent="1" source="F1rEGI-G_MPweLG45hTM-10" target="F1rEGI-G_MPweLG45hTM-13" edge="1">
          <mxGeometry relative="1" as="geometry" />
        </mxCell>
        <mxCell id="F1rEGI-G_MPweLG45hTM-88" style="edgeStyle=orthogonalEdgeStyle;rounded=0;orthogonalLoop=1;jettySize=auto;html=1;exitX=0;exitY=0.5;exitDx=0;exitDy=0;entryX=0;entryY=0.5;entryDx=0;entryDy=0;" parent="1" source="F1rEGI-G_MPweLG45hTM-10" target="F1rEGI-G_MPweLG45hTM-58" edge="1">
          <mxGeometry relative="1" as="geometry">
            <mxPoint x="130" y="1157.1111382378472" as="targetPoint" />
            <Array as="points">
              <mxPoint x="130" y="370" />
              <mxPoint x="130" y="1148" />
            </Array>
          </mxGeometry>
        </mxCell>
        <mxCell id="F1rEGI-G_MPweLG45hTM-10" value="i, h in sequence&lt;br&gt;?" style="rhombus;whiteSpace=wrap;html=1;" parent="1" vertex="1">
          <mxGeometry x="188.37" y="330" width="80" height="80" as="geometry" />
        </mxCell>
        <mxCell id="F1rEGI-G_MPweLG45hTM-11" value="True" style="text;html=1;strokeColor=none;fillColor=none;align=center;verticalAlign=middle;whiteSpace=wrap;rounded=0;" parent="1" vertex="1">
          <mxGeometry x="220" y="410" width="60" height="30" as="geometry" />
        </mxCell>
        <mxCell id="F1rEGI-G_MPweLG45hTM-12" value="False" style="text;html=1;strokeColor=none;fillColor=none;align=center;verticalAlign=middle;whiteSpace=wrap;rounded=0;" parent="1" vertex="1">
          <mxGeometry x="139.07" y="340" width="60" height="30" as="geometry" />
        </mxCell>
        <mxCell id="F1rEGI-G_MPweLG45hTM-16" value="" style="edgeStyle=orthogonalEdgeStyle;rounded=0;orthogonalLoop=1;jettySize=auto;html=1;" parent="1" source="F1rEGI-G_MPweLG45hTM-13" target="F1rEGI-G_MPweLG45hTM-15" edge="1">
          <mxGeometry relative="1" as="geometry" />
        </mxCell>
        <mxCell id="F1rEGI-G_MPweLG45hTM-29" value="" style="edgeStyle=orthogonalEdgeStyle;rounded=0;orthogonalLoop=1;jettySize=auto;html=1;exitX=1;exitY=0.5;exitDx=0;exitDy=0;" parent="1" source="F1rEGI-G_MPweLG45hTM-13" target="F1rEGI-G_MPweLG45hTM-20" edge="1">
          <mxGeometry relative="1" as="geometry">
            <mxPoint x="318.54000000000013" y="490" as="sourcePoint" />
          </mxGeometry>
        </mxCell>
        <mxCell id="F1rEGI-G_MPweLG45hTM-13" value="&quot;private &quot; + dentist_role in h.lower()&lt;br&gt;?" style="rhombus;whiteSpace=wrap;html=1;" parent="1" vertex="1">
          <mxGeometry x="168.13" y="440" width="120" height="100" as="geometry" />
        </mxCell>
        <mxCell id="F1rEGI-G_MPweLG45hTM-55" style="edgeStyle=orthogonalEdgeStyle;rounded=0;orthogonalLoop=1;jettySize=auto;html=1;exitX=0.5;exitY=1;exitDx=0;exitDy=0;" parent="1" source="F1rEGI-G_MPweLG45hTM-15" edge="1">
          <mxGeometry relative="1" as="geometry">
            <mxPoint x="230" y="310" as="targetPoint" />
            <Array as="points">
              <mxPoint x="228" y="1080" />
              <mxPoint x="790" y="1080" />
            </Array>
          </mxGeometry>
        </mxCell>
        <mxCell id="F1rEGI-G_MPweLG45hTM-15" value="&quot;public &quot; + dentist_role in h.lower()&lt;br&gt;?" style="rhombus;whiteSpace=wrap;html=1;" parent="1" vertex="1">
          <mxGeometry x="168.37" y="750" width="120" height="100" as="geometry" />
        </mxCell>
        <mxCell id="PahRThepeINyk3PYhxjF-1" style="edgeStyle=orthogonalEdgeStyle;rounded=0;orthogonalLoop=1;jettySize=auto;html=1;exitX=0;exitY=0.5;exitDx=0;exitDy=0;" edge="1" parent="1" source="F1rEGI-G_MPweLG45hTM-18">
          <mxGeometry relative="1" as="geometry">
            <mxPoint x="229" y="700" as="targetPoint" />
          </mxGeometry>
        </mxCell>
        <mxCell id="F1rEGI-G_MPweLG45hTM-18" value="dentists_by_private_role_yearly = temp_list" style="whiteSpace=wrap;html=1;rounded=0;" parent="1" vertex="1">
          <mxGeometry x="330" y="670.03" width="232.81" height="60" as="geometry" />
        </mxCell>
        <mxCell id="F1rEGI-G_MPweLG45hTM-19" value="" style="edgeStyle=orthogonalEdgeStyle;rounded=0;orthogonalLoop=1;jettySize=auto;html=1;" parent="1" source="F1rEGI-G_MPweLG45hTM-20" edge="1">
          <mxGeometry relative="1" as="geometry">
            <mxPoint x="446.34000000000003" y="550" as="targetPoint" />
          </mxGeometry>
        </mxCell>
        <mxCell id="F1rEGI-G_MPweLG45hTM-20" value="for each row in data.row_data" style="rounded=0;whiteSpace=wrap;html=1;" parent="1" vertex="1">
          <mxGeometry x="380.06" y="470" width="132.07" height="40" as="geometry" />
        </mxCell>
        <mxCell id="F1rEGI-G_MPweLG45hTM-21" value="" style="edgeStyle=orthogonalEdgeStyle;rounded=0;orthogonalLoop=1;jettySize=auto;html=1;" parent="1" source="F1rEGI-G_MPweLG45hTM-22" edge="1">
          <mxGeometry relative="1" as="geometry">
            <mxPoint x="447.06000000000006" y="670.03" as="targetPoint" />
          </mxGeometry>
        </mxCell>
        <mxCell id="F1rEGI-G_MPweLG45hTM-22" value="row in&lt;br&gt;sequence&lt;br&gt;?" style="rhombus;whiteSpace=wrap;html=1;" parent="1" vertex="1">
          <mxGeometry x="406.41" y="550" width="80" height="80" as="geometry" />
        </mxCell>
        <mxCell id="F1rEGI-G_MPweLG45hTM-23" value="" style="edgeStyle=orthogonalEdgeStyle;rounded=0;orthogonalLoop=1;jettySize=auto;html=1;" parent="1" edge="1">
          <mxGeometry relative="1" as="geometry">
            <mxPoint x="486.36652173913023" y="590.0434782608695" as="sourcePoint" />
            <mxPoint x="522.1065760869564" y="590.0434782608695" as="targetPoint" />
          </mxGeometry>
        </mxCell>
        <mxCell id="F1rEGI-G_MPweLG45hTM-24" value="True" style="text;html=1;strokeColor=none;fillColor=none;align=center;verticalAlign=middle;whiteSpace=wrap;rounded=0;" parent="1" vertex="1">
          <mxGeometry x="468.91" y="560" width="60" height="30" as="geometry" />
        </mxCell>
        <mxCell id="F1rEGI-G_MPweLG45hTM-25" style="edgeStyle=orthogonalEdgeStyle;rounded=0;orthogonalLoop=1;jettySize=auto;html=1;exitX=1;exitY=0.5;exitDx=0;exitDy=0;" parent="1" source="F1rEGI-G_MPweLG45hTM-26" edge="1">
          <mxGeometry relative="1" as="geometry">
            <mxPoint x="447.36" y="530.03" as="targetPoint" />
            <Array as="points">
              <mxPoint x="738.3599999999999" y="590.03" />
              <mxPoint x="738.3599999999999" y="530.03" />
              <mxPoint x="448.36" y="530.03" />
            </Array>
          </mxGeometry>
        </mxCell>
        <mxCell id="F1rEGI-G_MPweLG45hTM-26" value="Add row[i] to temp_list" style="rounded=0;whiteSpace=wrap;html=1;" parent="1" vertex="1">
          <mxGeometry x="523.36" y="564.99" width="195" height="50.02" as="geometry" />
        </mxCell>
        <mxCell id="F1rEGI-G_MPweLG45hTM-28" value="False" style="text;html=1;strokeColor=none;fillColor=none;align=center;verticalAlign=middle;whiteSpace=wrap;rounded=0;" parent="1" vertex="1">
          <mxGeometry x="438.36" y="630" width="60" height="30" as="geometry" />
        </mxCell>
        <mxCell id="F1rEGI-G_MPweLG45hTM-30" value="" style="edgeStyle=orthogonalEdgeStyle;rounded=0;orthogonalLoop=1;jettySize=auto;html=1;exitX=1;exitY=0.5;exitDx=0;exitDy=0;" parent="1" target="F1rEGI-G_MPweLG45hTM-33" edge="1">
          <mxGeometry relative="1" as="geometry">
            <mxPoint x="288.1300000000001" y="800" as="sourcePoint" />
          </mxGeometry>
        </mxCell>
        <mxCell id="PahRThepeINyk3PYhxjF-2" style="edgeStyle=orthogonalEdgeStyle;rounded=0;orthogonalLoop=1;jettySize=auto;html=1;exitX=0;exitY=0.5;exitDx=0;exitDy=0;" edge="1" parent="1" source="F1rEGI-G_MPweLG45hTM-31">
          <mxGeometry relative="1" as="geometry">
            <mxPoint x="229" y="1010" as="targetPoint" />
          </mxGeometry>
        </mxCell>
        <mxCell id="F1rEGI-G_MPweLG45hTM-31" value="dentists_by_public_role_yearly = temp_list" style="whiteSpace=wrap;html=1;rounded=0;" parent="1" vertex="1">
          <mxGeometry x="330" y="980.03" width="232.81" height="60" as="geometry" />
        </mxCell>
        <mxCell id="F1rEGI-G_MPweLG45hTM-32" value="" style="edgeStyle=orthogonalEdgeStyle;rounded=0;orthogonalLoop=1;jettySize=auto;html=1;" parent="1" source="F1rEGI-G_MPweLG45hTM-33" edge="1">
          <mxGeometry relative="1" as="geometry">
            <mxPoint x="446.34000000000003" y="860" as="targetPoint" />
          </mxGeometry>
        </mxCell>
        <mxCell id="F1rEGI-G_MPweLG45hTM-33" value="for each row in data.row_data" style="rounded=0;whiteSpace=wrap;html=1;" parent="1" vertex="1">
          <mxGeometry x="380.06" y="780" width="132.07" height="40" as="geometry" />
        </mxCell>
        <mxCell id="F1rEGI-G_MPweLG45hTM-34" value="" style="edgeStyle=orthogonalEdgeStyle;rounded=0;orthogonalLoop=1;jettySize=auto;html=1;" parent="1" source="F1rEGI-G_MPweLG45hTM-35" edge="1">
          <mxGeometry relative="1" as="geometry">
            <mxPoint x="447.06000000000006" y="980.03" as="targetPoint" />
          </mxGeometry>
        </mxCell>
        <mxCell id="F1rEGI-G_MPweLG45hTM-35" value="row in&lt;br&gt;sequence&lt;br&gt;?" style="rhombus;whiteSpace=wrap;html=1;" parent="1" vertex="1">
          <mxGeometry x="406.41" y="860" width="80" height="80" as="geometry" />
        </mxCell>
        <mxCell id="F1rEGI-G_MPweLG45hTM-36" value="" style="edgeStyle=orthogonalEdgeStyle;rounded=0;orthogonalLoop=1;jettySize=auto;html=1;" parent="1" edge="1">
          <mxGeometry relative="1" as="geometry">
            <mxPoint x="486.36652173913023" y="900.0434782608695" as="sourcePoint" />
            <mxPoint x="522.1065760869564" y="900.0434782608695" as="targetPoint" />
          </mxGeometry>
        </mxCell>
        <mxCell id="F1rEGI-G_MPweLG45hTM-37" value="True" style="text;html=1;strokeColor=none;fillColor=none;align=center;verticalAlign=middle;whiteSpace=wrap;rounded=0;" parent="1" vertex="1">
          <mxGeometry x="468.91" y="870" width="60" height="30" as="geometry" />
        </mxCell>
        <mxCell id="F1rEGI-G_MPweLG45hTM-38" style="edgeStyle=orthogonalEdgeStyle;rounded=0;orthogonalLoop=1;jettySize=auto;html=1;exitX=1;exitY=0.5;exitDx=0;exitDy=0;" parent="1" source="F1rEGI-G_MPweLG45hTM-39" edge="1">
          <mxGeometry relative="1" as="geometry">
            <mxPoint x="447.36" y="840.03" as="targetPoint" />
            <Array as="points">
              <mxPoint x="738.3599999999999" y="900.03" />
              <mxPoint x="738.3599999999999" y="840.03" />
              <mxPoint x="448.36" y="840.03" />
            </Array>
          </mxGeometry>
        </mxCell>
        <mxCell id="F1rEGI-G_MPweLG45hTM-39" value="Add row[i] to temp_list" style="rounded=0;whiteSpace=wrap;html=1;" parent="1" vertex="1">
          <mxGeometry x="523.36" y="874.99" width="195" height="50.02" as="geometry" />
        </mxCell>
        <mxCell id="F1rEGI-G_MPweLG45hTM-40" value="False" style="text;html=1;strokeColor=none;fillColor=none;align=center;verticalAlign=middle;whiteSpace=wrap;rounded=0;" parent="1" vertex="1">
          <mxGeometry x="438.36" y="940" width="60" height="30" as="geometry" />
        </mxCell>
        <mxCell id="F1rEGI-G_MPweLG45hTM-41" value="True" style="text;html=1;strokeColor=none;fillColor=none;align=center;verticalAlign=middle;whiteSpace=wrap;rounded=0;" parent="1" vertex="1">
          <mxGeometry x="270" y="460" width="60" height="30" as="geometry" />
        </mxCell>
        <mxCell id="F1rEGI-G_MPweLG45hTM-43" value="True" style="text;html=1;strokeColor=none;fillColor=none;align=center;verticalAlign=middle;whiteSpace=wrap;rounded=0;" parent="1" vertex="1">
          <mxGeometry x="268.12" y="770" width="60" height="30" as="geometry" />
        </mxCell>
        <mxCell id="F1rEGI-G_MPweLG45hTM-44" value="False" style="text;html=1;strokeColor=none;fillColor=none;align=center;verticalAlign=middle;whiteSpace=wrap;rounded=0;" parent="1" vertex="1">
          <mxGeometry x="220" y="540" width="60" height="30" as="geometry" />
        </mxCell>
        <mxCell id="F1rEGI-G_MPweLG45hTM-46" value="&lt;font style=&quot;font-size: 10px;&quot;&gt;dentists_by_private_role_yearly = [row[i] for row in data.row_data]&amp;nbsp;&amp;nbsp;&lt;/font&gt;" style="text;html=1;strokeColor=none;fillColor=none;align=center;verticalAlign=middle;whiteSpace=wrap;rounded=0;glass=0;dashed=1;" parent="1" vertex="1">
          <mxGeometry x="310.87" y="734.03" width="309.13" height="30" as="geometry" />
        </mxCell>
        <mxCell id="F1rEGI-G_MPweLG45hTM-48" value="&lt;font style=&quot;font-size: 10px;&quot;&gt;dentists_by_public_role_yearly = [row[i] for row in data.row_data]&lt;/font&gt;" style="text;html=1;strokeColor=none;fillColor=none;align=center;verticalAlign=middle;whiteSpace=wrap;rounded=0;glass=0;dashed=1;" parent="1" vertex="1">
          <mxGeometry x="312.03" y="1044.03" width="297.97" height="30" as="geometry" />
        </mxCell>
        <mxCell id="F1rEGI-G_MPweLG45hTM-53" value="False" style="text;html=1;strokeColor=none;fillColor=none;align=center;verticalAlign=middle;whiteSpace=wrap;rounded=0;" parent="1" vertex="1">
          <mxGeometry x="220" y="850" width="60" height="30" as="geometry" />
        </mxCell>
        <mxCell id="F1rEGI-G_MPweLG45hTM-58" value="B" style="ellipse;whiteSpace=wrap;html=1;aspect=fixed;" parent="1" vertex="1">
          <mxGeometry x="195.37" y="1115.04" width="66" height="66" as="geometry" />
        </mxCell>
        <mxCell id="F1rEGI-G_MPweLG45hTM-59" value="" style="edgeStyle=orthogonalEdgeStyle;rounded=0;orthogonalLoop=1;jettySize=auto;html=1;" parent="1" source="F1rEGI-G_MPweLG45hTM-60" edge="1">
          <mxGeometry relative="1" as="geometry">
            <mxPoint x="1044.41" y="110" as="targetPoint" />
          </mxGeometry>
        </mxCell>
        <mxCell id="F1rEGI-G_MPweLG45hTM-60" value="B" style="ellipse;whiteSpace=wrap;html=1;aspect=fixed;" parent="1" vertex="1">
          <mxGeometry x="1011.4100000000001" width="66" height="66" as="geometry" />
        </mxCell>
        <mxCell id="F1rEGI-G_MPweLG45hTM-61" value="" style="edgeStyle=orthogonalEdgeStyle;rounded=0;orthogonalLoop=1;jettySize=auto;html=1;" parent="1" source="F1rEGI-G_MPweLG45hTM-62" target="F1rEGI-G_MPweLG45hTM-63" edge="1">
          <mxGeometry relative="1" as="geometry" />
        </mxCell>
        <mxCell id="F1rEGI-G_MPweLG45hTM-62" value="plt.rcParams[&#39;figure.figsize&#39;] = (11, 7)" style="rounded=0;whiteSpace=wrap;html=1;" parent="1" vertex="1">
          <mxGeometry x="944.41" y="270" width="200" height="40" as="geometry" />
        </mxCell>
        <mxCell id="F1rEGI-G_MPweLG45hTM-86" value="" style="edgeStyle=orthogonalEdgeStyle;rounded=0;orthogonalLoop=1;jettySize=auto;html=1;" parent="1" source="F1rEGI-G_MPweLG45hTM-63" target="F1rEGI-G_MPweLG45hTM-85" edge="1">
          <mxGeometry relative="1" as="geometry" />
        </mxCell>
        <mxCell id="F1rEGI-G_MPweLG45hTM-63" value="&lt;div&gt;plt.bar(x_loc - bar_width / 2, dentists_by_private_role_yearly, bar_width,&amp;nbsp;&lt;span style=&quot;background-color: initial;&quot;&gt;color = &#39;b&#39;, label = f&quot;Private {dentist_role.title()}&quot;)&lt;/span&gt;&lt;/div&gt;" style="shape=process;whiteSpace=wrap;html=1;backgroundOutline=1;rounded=0;size=0.046237827585409313;" parent="1" vertex="1">
          <mxGeometry x="849.41" y="350" width="389.99" height="50" as="geometry" />
        </mxCell>
        <mxCell id="F1rEGI-G_MPweLG45hTM-64" value="" style="edgeStyle=orthogonalEdgeStyle;rounded=0;orthogonalLoop=1;jettySize=auto;html=1;" parent="1" target="F1rEGI-G_MPweLG45hTM-65" edge="1">
          <mxGeometry relative="1" as="geometry">
            <mxPoint x="1044.4" y="490" as="sourcePoint" />
          </mxGeometry>
        </mxCell>
        <mxCell id="F1rEGI-G_MPweLG45hTM-87" value="" style="edgeStyle=orthogonalEdgeStyle;rounded=0;orthogonalLoop=1;jettySize=auto;html=1;" parent="1" source="F1rEGI-G_MPweLG45hTM-65" target="F1rEGI-G_MPweLG45hTM-70" edge="1">
          <mxGeometry relative="1" as="geometry" />
        </mxCell>
        <mxCell id="F1rEGI-G_MPweLG45hTM-65" value="plt.xticks(x_loc, data.years, fontsize=12)" style="shape=process;whiteSpace=wrap;html=1;backgroundOutline=1;rounded=0;size=0.06191950464396285;" parent="1" vertex="1">
          <mxGeometry x="917.11" y="530" width="254.58" height="50" as="geometry" />
        </mxCell>
        <mxCell id="F1rEGI-G_MPweLG45hTM-67" value="" style="edgeStyle=orthogonalEdgeStyle;rounded=0;orthogonalLoop=1;jettySize=auto;html=1;" parent="1" target="F1rEGI-G_MPweLG45hTM-68" edge="1">
          <mxGeometry relative="1" as="geometry">
            <mxPoint x="1044.4" y="680" as="sourcePoint" />
          </mxGeometry>
        </mxCell>
        <mxCell id="F1rEGI-G_MPweLG45hTM-68" value="plt.xlabel(&quot;Years&quot;, fontsize=15)" style="shape=process;whiteSpace=wrap;html=1;backgroundOutline=1;rounded=0;size=0.05221932114882506;" parent="1" vertex="1">
          <mxGeometry x="948.65" y="720" width="191.5" height="50" as="geometry" />
        </mxCell>
        <mxCell id="F1rEGI-G_MPweLG45hTM-69" value="" style="edgeStyle=orthogonalEdgeStyle;rounded=0;orthogonalLoop=1;jettySize=auto;html=1;" parent="1" edge="1">
          <mxGeometry relative="1" as="geometry">
            <mxPoint x="1044.4" y="770" as="sourcePoint" />
            <mxPoint x="1044.4" y="810" as="targetPoint" />
          </mxGeometry>
        </mxCell>
        <mxCell id="F1rEGI-G_MPweLG45hTM-70" value="plt.yticks(fontsize=12)" style="shape=process;whiteSpace=wrap;html=1;backgroundOutline=1;rounded=0;size=0.06191950464396285;" parent="1" vertex="1">
          <mxGeometry x="963.6700000000001" y="630" width="161.5" height="50" as="geometry" />
        </mxCell>
        <mxCell id="F1rEGI-G_MPweLG45hTM-71" value="" style="edgeStyle=orthogonalEdgeStyle;rounded=0;orthogonalLoop=1;jettySize=auto;html=1;" parent="1" source="F1rEGI-G_MPweLG45hTM-72" target="F1rEGI-G_MPweLG45hTM-74" edge="1">
          <mxGeometry relative="1" as="geometry" />
        </mxCell>
        <mxCell id="F1rEGI-G_MPweLG45hTM-72" value="plt.ylabel(&quot;Number of Active Dentists&quot;, fontsize=15)" style="shape=process;whiteSpace=wrap;html=1;backgroundOutline=1;rounded=0;size=0.051356862745097695;" parent="1" vertex="1">
          <mxGeometry x="885.03" y="810" width="318.75" height="50" as="geometry" />
        </mxCell>
        <mxCell id="F1rEGI-G_MPweLG45hTM-73" value="" style="edgeStyle=orthogonalEdgeStyle;rounded=0;orthogonalLoop=1;jettySize=auto;html=1;" parent="1" source="F1rEGI-G_MPweLG45hTM-74" target="F1rEGI-G_MPweLG45hTM-76" edge="1">
          <mxGeometry relative="1" as="geometry" />
        </mxCell>
        <mxCell id="F1rEGI-G_MPweLG45hTM-74" value="plt.title(f&quot;Private {dentist_role.title()} and Public {dentist_role.title()} vs Year&quot;, fontsize=15)" style="shape=process;whiteSpace=wrap;html=1;backgroundOutline=1;rounded=0;size=0.051356862745097695;" parent="1" vertex="1">
          <mxGeometry x="894.4200000000001" y="900" width="300.01" height="50" as="geometry" />
        </mxCell>
        <mxCell id="F1rEGI-G_MPweLG45hTM-75" value="" style="edgeStyle=orthogonalEdgeStyle;rounded=0;orthogonalLoop=1;jettySize=auto;html=1;" parent="1" source="F1rEGI-G_MPweLG45hTM-76" target="F1rEGI-G_MPweLG45hTM-78" edge="1">
          <mxGeometry relative="1" as="geometry" />
        </mxCell>
        <mxCell id="F1rEGI-G_MPweLG45hTM-76" value="plt.legend(loc = &#39;upper left&#39;, fontsize=14)" style="shape=process;whiteSpace=wrap;html=1;backgroundOutline=1;size=0.05047111240961275;" parent="1" vertex="1">
          <mxGeometry x="907.52" y="987.51" width="273.82" height="45.04" as="geometry" />
        </mxCell>
        <mxCell id="F1rEGI-G_MPweLG45hTM-77" value="" style="edgeStyle=orthogonalEdgeStyle;rounded=0;orthogonalLoop=1;jettySize=auto;html=1;" parent="1" source="F1rEGI-G_MPweLG45hTM-78" target="F1rEGI-G_MPweLG45hTM-79" edge="1">
          <mxGeometry relative="1" as="geometry" />
        </mxCell>
        <mxCell id="F1rEGI-G_MPweLG45hTM-78" value="plt.show()" style="shape=process;whiteSpace=wrap;html=1;backgroundOutline=1;" parent="1" vertex="1">
          <mxGeometry x="984.4000000000001" y="1070" width="120" height="45.04" as="geometry" />
        </mxCell>
        <mxCell id="F1rEGI-G_MPweLG45hTM-79" value="END&lt;br&gt;disp_bar_plots(dentist_role: str)" style="ellipse;whiteSpace=wrap;html=1;rounded=0;" parent="1" vertex="1">
          <mxGeometry x="955.3400000000001" y="1160" width="178.12" height="80" as="geometry" />
        </mxCell>
        <mxCell id="F1rEGI-G_MPweLG45hTM-83" value="" style="edgeStyle=orthogonalEdgeStyle;rounded=0;orthogonalLoop=1;jettySize=auto;html=1;" parent="1" source="F1rEGI-G_MPweLG45hTM-80" target="F1rEGI-G_MPweLG45hTM-82" edge="1">
          <mxGeometry relative="1" as="geometry" />
        </mxCell>
        <mxCell id="F1rEGI-G_MPweLG45hTM-80" value="bar_width = 0.4" style="rounded=0;whiteSpace=wrap;html=1;" parent="1" vertex="1">
          <mxGeometry x="961.33" y="110" width="166.19" height="40" as="geometry" />
        </mxCell>
        <mxCell id="F1rEGI-G_MPweLG45hTM-84" value="" style="edgeStyle=orthogonalEdgeStyle;rounded=0;orthogonalLoop=1;jettySize=auto;html=1;" parent="1" source="F1rEGI-G_MPweLG45hTM-82" target="F1rEGI-G_MPweLG45hTM-62" edge="1">
          <mxGeometry relative="1" as="geometry" />
        </mxCell>
        <mxCell id="F1rEGI-G_MPweLG45hTM-82" value="x_loc = np.arange(len(data.years))" style="rounded=0;whiteSpace=wrap;html=1;" parent="1" vertex="1">
          <mxGeometry x="945.95" y="190" width="196.91" height="40" as="geometry" />
        </mxCell>
        <mxCell id="F1rEGI-G_MPweLG45hTM-85" value="&lt;div&gt;plt.bar(x_loc + bar_width / 2, dentists_by_public_role_yearly, bar_width,&amp;nbsp;&lt;span style=&quot;background-color: initial;&quot;&gt;color = &#39;orange&#39;, label = f&quot;Public {dentist_role.title()}&quot;)&lt;/span&gt;&lt;/div&gt;" style="shape=process;whiteSpace=wrap;html=1;backgroundOutline=1;rounded=0;size=0.046237827585409313;" parent="1" vertex="1">
          <mxGeometry x="840.0000000000001" y="440" width="408.8" height="50" as="geometry" />
        </mxCell>
      </root>
    </mxGraphModel>
  </diagram>
</mxfile>
